<?xml version="1.0" standalone="no"?>
<svg xmlns="http://www.w3.org/2000/svg" viewBox="0 0 91.08 52.96" width="91.08" height="52.96"><rect fill="none" stroke="#000000" stroke-width="4" width="87.08" height="48.96" x="2" y="2"></rect><path fill="#000000" fill-rule="nonzero" d="M18.76 23.76L18.76 28.72L8.68 28.72Q3.88 28.72 1.94 27.06Q0 25.40 0 21.20L0 21.20L0 0.24L18.76 0.24L18.76 5.20L5.56 5.20L5.56 11.88L14.80 11.88L14.40 16.84L5.56 16.84L5.56 20.80Q5.56 22.48 6.32 23.12Q7.08 23.76 9.08 23.76L9.08 23.76L18.76 23.76ZM41.76 23.76L41.76 28.72L33.28 28.72Q28.48 28.72 26.34 26.86Q24.20 25 24.20 20.80L24.20 20.80L24.20 0.24L29.76 0.24L29.76 20.80Q29.76 22.48 30.52 23.12Q31.28 23.76 33.28 23.76L33.28 23.76L41.76 23.76ZM67.08 13.16L67.08 13.16L67.08 15.32Q67.08 22.48 64.38 25.72Q61.68 28.96 55.72 28.96Q49.76 28.96 47.10 25.72Q44.44 22.48 44.44 15.20L44.44 15.20L44.44 13.12Q44.44 6.48 47.14 3.24Q49.84 0 55.70 0Q61.56 0 64.32 3.28Q67.08 6.56 67.08 13.16ZM61.52 15.20L61.52 15.20L61.52 13.72Q61.52 9.88 60.56 7.60L60.56 7.60Q59.44 4.96 55.76 4.96L55.76 4.96Q52.04 4.96 50.92 7.60L50.92 7.60Q50.00 9.76 50.00 13.72L50.00 13.72L50.00 15.20Q50.00 20.36 51.44 22.16L51.44 22.16Q52 22.92 53.10 23.46Q54.20 24 55.74 24Q57.28 24 58.36 23.48Q59.44 22.96 60.04 22.20Q60.64 21.44 60.96 20.20L60.96 20.20Q61.52 18.24 61.52 15.20Z" transform="translate(12 12) scale(1)"></path></svg>